<svg width="13" height="16" viewBox="0 0 13 16" fill="none" xmlns="http://www.w3.org/2000/svg">
<path d="M1 7.22222V6.62222C0.668629 6.62222 0.4 6.89085 0.4 7.22222H1ZM12 7.22222H12.6C12.6 6.89085 12.3314 6.62222 12 6.62222V7.22222ZM12 15V15.6C12.3314 15.6 12.6 15.3314 12.6 15H12ZM1 15H0.4C0.4 15.3314 0.668629 15.6 1 15.6L1 15ZM10.4286 7.22222V7.82222H11.0286V7.22222H10.4286ZM2.57143 7.22222H1.97143V7.82222H2.57143V7.22222ZM1 7.82222H12V6.62222H1V7.82222ZM11.4 7.22222V15H12.6V7.22222H11.4ZM12 14.4H1V15.6H12V14.4ZM1.6 15V7.22222H0.4V15H1.6ZM9.82857 4.88889V7.22222H11.0286V4.88889H9.82857ZM10.4286 6.62222H2.57143V7.82222H10.4286V6.62222ZM3.17143 7.22222V4.88889H1.97143V7.22222H3.17143ZM6.5 1.6C8.34408 1.6 9.82857 3.07821 9.82857 4.88889H11.0286C11.0286 2.40402 8.9953 0.4 6.5 0.4V1.6ZM6.5 0.4C4.0047 0.4 1.97143 2.40402 1.97143 4.88889H3.17143C3.17143 3.07821 4.65592 1.6 6.5 1.6V0.4ZM6.5 12.4889C7.25955 12.4889 7.88571 11.8778 7.88571 11.1111H6.68571C6.68571 11.2036 6.60832 11.2889 6.5 11.2889V12.4889ZM7.88571 11.1111C7.88571 10.3445 7.25955 9.73333 6.5 9.73333V10.9333C6.60832 10.9333 6.68571 11.0187 6.68571 11.1111H7.88571ZM6.5 9.73333C5.74045 9.73333 5.11429 10.3445 5.11429 11.1111H6.31429C6.31429 11.0187 6.39168 10.9333 6.5 10.9333V9.73333ZM5.11429 11.1111C5.11429 11.8778 5.74045 12.4889 6.5 12.4889V11.2889C6.39168 11.2889 6.31429 11.2036 6.31429 11.1111H5.11429Z" fill="#1B1B1B"/>
</svg>
