<svg width="211" height="159" viewBox="0 0 211 159" fill="none" xmlns="http://www.w3.org/2000/svg">
<path opacity="0.1" d="M50.8862 132.689C49.1181 132.51 47.2709 132.319 45.5964 132.786C43.9219 133.253 42.5344 134.615 43.0316 135.918C44.1424 138.821 50.6616 136.799 53.6674 138.784C54.7408 139.493 55.1589 140.609 55.9972 141.48C57.3534 142.895 59.6853 143.554 61.936 143.917C75.457 146.097 90.871 140.487 102.722 145.89C106.56 147.64 109.586 150.426 113.794 151.593C119.369 153.141 125.474 151.488 131.243 150.428C138.437 149.117 145.77 148.734 153.061 149.287C158.455 149.702 165.63 149.841 167.356 145.935C168.467 143.424 166.116 140.628 162.996 139.44C159.876 138.251 156.223 138.288 152.739 138.402C146.014 138.643 139.287 139.128 132.561 138.892C119.556 138.432 107.271 133.292 94.6069 133.122C79.8586 132.944 65.7032 134.178 50.8862 132.689Z" fill="#6FAD40"/>
<path opacity="0.1" d="M37.2134 67.6779C35.1332 69.7748 35.0063 72.9895 35.0063 72.9895C35.0063 72.9895 38.2285 72.807 40.3003 70.7081C42.3722 68.6092 42.5095 65.3965 42.5095 65.3965C42.5095 65.3965 39.2852 65.5852 37.2134 67.6779Z" fill="#6FAD40"/>
<path opacity="0.1" d="M45.586 15.8766C46.3203 18.7284 49.0141 20.5017 49.0141 20.5017C49.0141 20.5017 50.5181 17.654 49.7838 14.8022C49.0495 11.9504 46.3557 10.1792 46.3557 10.1792C46.3557 10.1792 44.8434 13.0269 45.586 15.8766Z" fill="#6FAD40"/>
<path opacity="0.1" d="M167.242 23.721C165.162 25.8179 165.033 29.0326 165.033 29.0326C165.033 29.0326 168.257 28.8501 170.329 26.7512C172.401 24.6523 172.536 21.4375 172.536 21.4375C172.536 21.4375 169.314 21.6345 167.242 23.721Z" fill="#6FAD40"/>
<path opacity="0.1" d="M103.841 53.1058C103.6 56.0385 105.561 58.5937 105.561 58.5937C105.561 58.5937 107.918 56.3931 108.159 53.4584C108.401 50.5236 106.439 47.9746 106.439 47.9746C106.439 47.9746 104.082 50.171 103.841 53.1058Z" fill="#6FAD40"/>
<path opacity="0.1" d="M172.083 94.2363C171.841 97.169 173.803 99.7242 173.803 99.7242C173.803 99.7242 176.16 97.5237 176.401 94.591C176.642 91.6583 174.681 89.103 174.681 89.103C174.681 89.103 172.324 91.3036 172.083 94.2363Z" fill="#6FAD40"/>
<path opacity="0.1" d="M123.011 19.9893C109.548 19.5849 96.7261 15.8412 84.4823 11.7346C72.2385 7.62803 60.1112 3.08796 46.9708 0.914367C38.5192 -0.483536 28.8527 -0.680569 22.0443 3.229C15.4898 6.98923 13.3722 13.483 12.2343 19.5081C11.3773 24.0399 10.8739 28.8102 13.2203 33.0537C14.8511 36.0009 17.7426 38.4773 19.7437 41.298C26.706 51.1186 21.7843 63.2268 14.2417 72.8234C10.7054 77.322 6.59709 81.6111 3.86584 86.4C1.1346 91.189 -0.128054 96.6728 2.26204 101.555C4.62926 106.396 10.2727 110.032 16.3863 112.589C28.8027 117.774 43.4283 119.269 57.7003 120.111C89.2833 121.978 121.033 121.169 152.699 120.36C164.418 120.062 176.188 119.759 187.716 118.195C194.119 117.328 200.728 115.951 205.377 112.624C211.276 108.401 212.738 101.252 208.784 95.9572C202.153 87.0782 183.822 84.8715 179.181 75.3413C176.631 70.096 179.25 64.2534 182.959 59.3878C190.913 48.9512 204.245 39.7943 204.946 27.8624C205.429 19.6699 199.02 11.465 189.11 7.58863C178.724 3.52351 164.319 4.0358 156.66 10.7619C148.765 17.6788 134.899 20.344 123.011 19.9893Z" fill="#6FAD40"/>
<path d="M136.837 41.8188H130.804V48.1447H136.837V41.8188Z" fill="#649C3A"/>
<path d="M123.473 114.86C122.943 117.505 122.156 119.56 120.7 120.771C119.244 121.983 117.199 125.231 117.199 125.231C117.164 129.551 116.02 130.864 116.02 130.864L114.841 131.175H111.928C111.928 131.175 111.408 129.723 111.304 128.86C111.269 128.572 111.475 128.089 111.762 127.57C112.803 125.669 113.45 123.58 113.665 121.425L113.8 120.149C113.555 112.233 116.713 109.663 118.038 108.931C118.221 108.829 118.376 108.684 118.491 108.51C118.606 108.335 118.677 108.135 118.697 107.927L118.932 105.664L126.766 106.048C126.766 106.048 126.6 106.736 126.897 108.329C126.957 108.659 127.039 109.026 127.147 109.435C127.771 111.818 123.506 114.686 123.473 114.86Z" fill="#F4DDC7"/>
<path d="M136.757 109.393C136.489 110.551 136.118 111.683 135.649 112.776C135.24 113.753 135.015 114.796 134.983 115.854C134.983 115.889 134.983 115.924 134.983 115.96C134.882 119.095 134.229 122.188 133.055 125.098C131.904 127.968 130.379 131.704 129.922 132.49C129.161 133.802 129.61 136.015 129.61 136.015L125.2 135.704L125.277 128.306C124.817 123.024 126.51 118.143 127.428 115.939C127.798 115.057 128.01 114.117 128.052 113.162L128.26 108.254L128.324 106.803C128.324 106.803 136.121 105.697 136.778 107.46C136.959 107.927 136.915 108.622 136.757 109.393Z" fill="#F4DDC7"/>
<path opacity="0.1" d="M126.897 108.329L118.689 107.927L118.924 105.664L126.766 106.048C126.766 106.048 126.594 106.734 126.897 108.329Z" fill="black"/>
<path opacity="0.1" d="M136.757 109.393L128.258 108.254L128.322 106.803C128.322 106.803 136.119 105.697 136.776 107.46C136.959 107.927 136.915 108.622 136.757 109.393Z" fill="black"/>
<path d="M141.224 94.2566L137.827 109.121L127.773 107.773V102.656L126.904 107.914L114.839 107.325L115.463 95.8141C116.109 93.5171 116.562 91.1701 116.815 88.7977C117.05 86.1968 118.286 79.7818 118.883 76.7683C119.091 75.7748 119.207 75.1484 119.207 75.1484C119.207 75.1484 139.871 79.4334 141.224 80.9889C141.454 81.2544 141.606 81.8185 141.7 82.5673C142.153 86.201 141.224 94.2566 141.224 94.2566Z" fill="#BDD2E8"/>
<path opacity="0.1" d="M117.093 95.2253C117.093 95.2253 125.227 90.9736 127.209 91.8716L117.093 95.2253Z" fill="black"/>
<path opacity="0.1" d="M121.53 81.3296C121.53 81.3296 128.291 86.4462 128.499 87.8276L121.53 81.3296Z" fill="black"/>
<path opacity="0.1" d="M119.694 98.9588C119.694 98.9588 124.582 98.7514 126.142 99.9958L119.694 98.9588Z" fill="black"/>
<path opacity="0.1" d="M128.499 93.4873C128.499 93.4873 130.823 101.07 129.816 103.144C128.809 105.218 127.771 102.659 127.771 102.659L128.499 93.4873Z" fill="black"/>
<path d="M125.235 133.01C125.235 133.01 122.947 133.357 123.363 138.886C123.779 144.415 124.403 145.386 125.235 145.455C126.067 145.523 130.124 146.527 129.916 144.486C129.708 142.445 129.5 137.92 129.776 137.227C130.053 136.534 130.531 134.711 129.483 134.261L129.256 135.327C129.256 135.327 127.037 133.286 125.72 134.773C125.663 134.411 125.572 134.054 125.447 133.709C125.316 133.386 125.029 133.218 125.235 133.01Z" fill="#494457"/>
<path d="M167.111 65.1519C167.111 65.1519 166.587 65.4444 165.817 65.8094C164.629 66.3735 162.859 67.116 161.549 67.226C159.389 67.4085 158.713 67.6159 156.244 65.853C154.349 64.5007 151.177 62.6154 149.796 61.8107L149.195 61.456L149.134 61.4207V61.3958L150.28 58.2558L154.337 56.105L155.344 56.9657L158.341 59.5271C158.341 59.5271 158.809 60.2779 159.564 60.2261C160.319 60.1742 164.349 60.5102 164.349 60.5102L165.11 60.6347L166.714 60.9002L167.111 65.1519Z" fill="#F4DDC7"/>
<path opacity="0.1" d="M167.111 65.1517C167.111 65.1517 166.587 65.4441 165.817 65.8091C165.004 65.3943 163.993 64.6166 164.382 63.3369C164.733 62.1858 164.829 61.2877 165.118 60.6406L166.722 60.9061L167.111 65.1517Z" fill="black"/>
<path d="M166.566 59.5519C166.566 59.5519 171.09 58.2556 170.753 63.6999C170.416 69.1443 166.93 66.1639 166.93 66.1639C166.93 66.1639 163.966 65.3861 164.59 63.337C165.214 61.2878 165.033 60.0455 166.566 59.5519Z" fill="#F4DDC7"/>
<path d="M119.658 41.9226L114.944 43.8971L114.872 43.9282L114.82 43.9033L114.526 43.756C113.307 43.1504 109.118 41.0784 106.482 39.8485C103.362 38.3967 103.847 36.9449 103.847 36.9449L103.397 21.736L102.599 19.0044C102.599 19.0044 102.035 9.74593 106.551 7.42508C111.067 5.10423 108.146 20.8358 108.146 20.8358L108.496 24.1045C108.722 26.1955 109.136 28.262 109.734 30.2789C109.929 30.942 110.052 31.6242 110.1 32.3136C110.239 34.5245 111.279 34.3772 111.279 34.3772C112.922 34.6344 114.508 35.1719 115.968 35.9659C116.51 36.2513 117.029 36.5786 117.52 36.9449L119.658 41.9226Z" fill="#F4DDC7"/>
<path d="M136.439 49.1815L132.416 48.7667C132.416 48.7667 133.602 47.0079 134.124 45.2968C134.198 45.0622 134.257 44.8233 134.301 44.5813C134.421 43.9031 134.39 43.2746 134.08 42.8204C132.903 41.0928 141.084 38.6724 141.084 38.6724C140.985 39.6285 140.955 40.5906 140.995 41.5511C141.018 42.2195 141.087 42.8854 141.203 43.5443C141.45 44.8862 141.943 46.1493 142.883 46.7964C145.452 48.5593 136.439 49.1815 136.439 49.1815Z" fill="#F4DDC7"/>
<path opacity="0.1" d="M136.439 49.1817L132.416 48.7669C132.416 48.7669 133.602 47.0081 134.124 45.297C134.588 45.9545 134.748 45.9399 135.399 46.0706C135.399 46.0706 139.459 46.67 141.207 43.5444C141.454 44.8863 141.947 46.1494 142.888 46.7965C145.452 48.5595 136.439 49.1817 136.439 49.1817Z" fill="black"/>
<path opacity="0.1" d="M149.804 61.8107C149.799 61.934 149.805 62.0574 149.821 62.1798L149.197 61.456L149.145 61.3958L150.291 58.2558L154.347 56.105L155.354 56.9657C153.912 57.5153 149.868 59.2596 149.804 61.8107Z" fill="black"/>
<path opacity="0.1" d="M119.659 41.9228L114.945 43.8973H114.82L114.456 43.9222C114.456 43.9222 114.483 43.8621 114.527 43.7501C114.92 42.7981 116.744 38.1501 115.956 35.96C116.498 36.2453 117.017 36.5727 117.508 36.9389L119.659 41.9228Z" fill="black"/>
<path opacity="0.1" d="M141.7 82.5612C139.865 82.3973 121.51 80.7049 119.798 78.0107C119.527 77.5718 119.221 77.1556 118.882 76.7663C119.09 75.7728 119.207 75.1465 119.207 75.1465C119.207 75.1465 139.871 79.4315 141.223 80.987C141.454 81.2483 141.606 81.8104 141.7 82.5612Z" fill="black"/>
<path d="M135.399 46.2783C135.399 46.2783 139.503 46.8839 141.238 43.7044C141.238 43.7044 144.136 46.0771 145.868 46.2804C147.601 46.4836 155.645 56.58 155.645 56.58C155.645 56.58 149.197 58.6541 149.613 61.9725L146.561 58.4467C146.561 58.4467 145.036 58.3762 143.72 62.5947C143.72 62.5947 142.124 65.0131 142.332 72.687C142.54 80.361 141.847 82.1592 141.847 82.1592C141.847 82.1592 121.599 80.4315 119.798 77.5963C117.996 74.7611 117.718 76.1445 117.718 76.1445C117.718 76.1445 117.439 70.7519 119.311 66.3965C121.183 62.041 120.767 49.5283 120.767 49.5283C120.767 49.5283 120.975 43.3746 114.874 43.9284C114.874 43.9284 117.439 37.9821 116.261 35.7007C116.261 35.7007 119.771 36.6506 122.271 36.6796C123.806 36.6915 125.318 37.0459 126.698 37.7166C127.449 38.0838 128.141 38.5463 128.534 39.098C129.712 40.7572 131.655 39.9981 131.655 39.9981C132.144 41.5164 132.749 42.9953 133.464 44.422C133.546 44.5734 133.627 44.7228 133.71 44.8659C133.83 45.0733 133.955 45.2807 134.08 45.4507C134.579 46.1621 134.721 46.1435 135.399 46.2783Z" fill="#6FAD40"/>
<path opacity="0.1" d="M140.994 41.5448C140.773 41.8579 140.527 42.1527 140.258 42.4263C139.581 43.1184 138.773 43.6685 137.88 44.0439C136.986 44.4194 136.027 44.6126 135.058 44.6123C134.807 44.6124 134.556 44.6 134.307 44.575C134.427 43.8967 134.396 43.2683 134.086 42.8141C132.909 41.0864 141.09 38.666 141.09 38.666C140.989 39.622 140.957 40.5842 140.994 41.5448Z" fill="black"/>
<path d="M142.332 37.1522C142.332 38.588 141.905 39.9914 141.105 41.1852C140.305 42.379 139.168 43.3094 137.838 43.8588C136.507 44.4082 135.043 44.552 133.631 44.2719C132.219 43.9918 130.922 43.3004 129.903 42.2852C128.885 41.27 128.192 39.9766 127.911 38.5684C127.63 37.1603 127.774 35.7007 128.325 34.3743C128.876 33.0479 129.809 31.9141 131.007 31.1165C132.204 30.3189 133.612 29.8931 135.052 29.8931C136.009 29.8896 136.957 30.0749 137.842 30.4384C138.727 30.802 139.531 31.3365 140.208 32.0113C140.884 32.6861 141.421 33.4878 141.785 34.3701C142.15 35.2524 142.336 36.198 142.332 37.1522Z" fill="#F4DDC7"/>
<path opacity="0.1" d="M145.939 53.7446L146.089 58.602C146.089 58.602 148.262 56.8557 148.331 55.1965C148.4 53.5372 145.939 53.7446 145.939 53.7446Z" fill="black"/>
<path opacity="0.1" d="M128.395 58.6021C128.395 58.6021 134.115 66.4316 137.444 67.2259C140.772 68.0203 129.643 61.1407 128.395 58.6021Z" fill="black"/>
<path opacity="0.1" d="M134.463 59.417C134.463 59.417 137.652 63.0092 139.94 63.4572L134.463 59.417Z" fill="black"/>
<path opacity="0.1" d="M123.23 68.4702C123.23 68.4702 129.054 74.1738 132.383 74.5202L123.23 68.4702Z" fill="black"/>
<path opacity="0.1" d="M142.332 37.1526C142.333 39.0503 141.586 40.8723 140.252 42.2257L139.453 41.73C139.144 41.5696 138.877 41.3387 138.675 41.056C138.411 40.6163 138.488 40.0646 138.508 39.5523C138.552 38.4676 138.253 37.2936 137.402 36.6154C136.023 35.5141 133.812 36.1239 132.409 35.0433C132.072 34.7575 131.774 34.4275 131.525 34.0623L130.211 32.3056C130.132 32.2019 130.036 32.0982 129.934 31.9758C130.958 30.9723 132.256 30.2928 133.666 30.0229C135.075 29.7529 136.534 29.9045 137.857 30.4587C139.181 31.0128 140.311 31.9447 141.105 33.1372C141.899 34.3297 142.321 35.7296 142.319 37.1609L142.332 37.1526Z" fill="black"/>
<path d="M130.665 27.8566C131.316 27.3609 132.11 27.0996 132.843 26.7345C133.575 26.3695 134.222 25.9049 134.954 25.5938C135.686 25.2827 136.533 25.1002 137.292 25.3594C138.921 25.9174 139.536 28.1863 141.211 28.5846C141.494 28.6509 141.785 28.6572 142.07 28.7007C142.614 28.8035 143.13 29.0203 143.583 29.3367C144.037 29.6532 144.418 30.062 144.701 30.5362C145.26 31.4932 145.548 32.5836 145.534 33.6908C145.557 34.3054 145.467 34.919 145.269 35.5015C144.774 36.8558 143.532 37.7829 142.694 38.9548C141.901 40.0761 141.479 41.4173 141.49 42.7896L139.46 41.5307C139.15 41.371 138.883 41.1399 138.682 40.8566C138.417 40.417 138.494 39.8653 138.515 39.353C138.559 38.2682 138.259 37.0943 137.411 36.4161C136.029 35.3148 133.818 35.9246 132.418 34.844C132.081 34.5582 131.783 34.2282 131.534 33.863L130.219 32.1063C129.935 31.7247 129.387 31.2497 129.263 30.7851C128.986 29.7854 129.932 28.4186 130.665 27.8566Z" fill="#362133"/>
<path opacity="0.1" d="M139.686 41.2963C139.377 41.1366 139.11 40.9055 138.908 40.6223C138.644 40.1826 138.721 39.6309 138.742 39.1186C138.786 38.0339 138.486 36.86 137.635 36.1817C136.256 35.0804 134.045 35.6902 132.643 34.6096C132.305 34.3238 132.008 33.9938 131.759 33.6286L130.444 31.8719C130.157 31.4903 129.612 31.0153 129.487 30.5507C129.26 29.7501 129.835 28.7069 130.448 28.0391C129.76 28.6737 129.005 29.8787 129.26 30.7768C129.394 31.2414 129.932 31.7163 130.217 32.098L131.532 33.8547C131.781 34.2199 132.078 34.5498 132.416 34.8357C133.812 35.9163 136.023 35.3065 137.408 36.4078C138.257 37.086 138.557 38.2599 138.513 39.3447C138.492 39.857 138.415 40.4086 138.679 40.8483C138.881 41.1316 139.148 41.3627 139.457 41.5224L141.488 42.7813C141.488 42.6611 141.488 42.5408 141.5 42.4225L139.686 41.2963Z" fill="black"/>
<path d="M111.631 127.812C111.631 127.812 109.605 128.227 110.021 133.767C110.437 139.307 111.061 140.267 111.893 140.336C112.725 140.404 116.781 141.408 116.573 139.367C116.365 137.326 116.157 132.801 116.434 132.108C116.71 131.415 117.809 129.555 116.76 129.105L115.914 130.208C115.914 130.208 113.694 128.167 112.377 129.654C112.377 129.654 111.146 128.296 111.631 127.812Z" fill="#494457"/>
<path opacity="0.1" d="M112.912 131.247C113.351 131.454 113.761 131.708 114.198 131.915C114.628 132.14 115.108 132.252 115.593 132.243C115.8 132.239 115.999 132.17 116.163 132.046" fill="black"/>
<path opacity="0.1" d="M126.246 136.665C126.506 136.903 126.708 137.208 127.001 137.405C127.417 137.683 127.95 137.699 128.457 137.706C128.542 137.713 128.627 137.703 128.707 137.675C128.798 137.625 128.874 137.554 128.929 137.467L129.202 137.117" fill="black"/>
<path d="M92.063 44.6874C92.063 44.6874 91.127 35.8395 94.7672 38.0172C98.4075 40.195 95.9009 44.0651 95.9009 44.0651L95.046 46.7967L92.063 44.6874Z" fill="#FFEAE1"/>
<path d="M97.8872 16.4116L99.9674 14.3749C99.9674 14.3749 103.955 2.93243 107.907 5.87134C111.86 8.81025 102.898 16.2415 102.898 16.2415L100.523 19.0062L97.8872 16.4116Z" fill="#FFEAE1"/>
<path d="M67.4463 61.6632L67.3423 64.0131C67.3423 64.0131 69.2498 67.3316 70.0465 67.5742C70.8432 67.8169 70.7745 60.5557 70.7745 60.5557L67.4463 61.6632Z" fill="#FF5374"/>
<path opacity="0.1" d="M67.4463 61.6632L67.3423 64.0131C67.3423 64.0131 69.2498 67.3316 70.0465 67.5742C70.8432 67.8169 70.7745 60.5557 70.7745 60.5557L67.4463 61.6632Z" fill="black"/>
<path d="M70.6353 59.083L70.7767 67.7442H80.4473L79.7193 62.6981L70.6353 59.083Z" fill="#FFEAE1"/>
<path d="M72.8902 80.707L73.3416 83.4717L78.9934 95.9865C78.9934 95.9865 81.5583 99.9272 79.4781 103.246C77.3979 106.564 75.2491 111.749 74.9018 114.893C74.5544 118.038 71.8169 121.116 71.8169 121.116L77.7807 123.64C77.7807 123.64 78.1967 118.697 79.8609 116.381C81.525 114.064 86.8627 103.868 86.8627 103.868C86.8627 103.868 88.5622 102.345 88.1815 97.8179C87.8008 93.2902 87.8341 90.1086 87.8341 90.1086L87.2454 82.8848L72.8902 80.707Z" fill="#575988"/>
<path opacity="0.1" d="M72.8902 80.707L73.3416 83.4717L78.9934 95.9865C78.9934 95.9865 81.5583 99.9272 79.4781 103.246C77.3979 106.564 75.2491 111.749 74.9018 114.893C74.5544 118.038 71.8169 121.116 71.8169 121.116L77.7807 123.64C77.7807 123.64 78.1967 118.697 79.8609 116.381C81.525 114.064 86.8627 103.868 86.8627 103.868C86.8627 103.868 88.5622 102.345 88.1815 97.8179C87.8008 93.2902 87.8341 90.1086 87.8341 90.1086L87.2454 82.8848L72.8902 80.707Z" fill="black"/>
<path d="M72.3348 120.736C72.3348 120.736 65.955 122.671 68.0705 125.853C70.186 129.035 77.0506 135.082 79.8234 134.875C82.5963 134.668 81.4875 132.627 81.4875 132.627L79.164 130.345C79.164 130.345 78.748 125.507 78.9227 124.09C79.0974 122.673 76.9466 122.016 76.6678 122.846C76.3891 123.675 72.3348 120.736 72.3348 120.736Z" fill="#C4747B"/>
<path d="M76.3555 64.0649L71.2987 64.6229C70.8468 64.6726 70.4302 64.8897 70.1313 65.2312C69.8323 65.5726 69.6729 66.0136 69.6845 66.4667C69.7386 68.4827 69.7739 71.6891 69.491 72.274C69.075 73.1389 67.7936 79.2926 73.3393 83.4738L80.8632 85.859L68.7983 86.7238L69.1811 93.396L71.0532 92.359L93.9349 93.396C93.9349 93.396 100.419 92.7386 96.0151 85.7221C91.6114 78.7056 82.2528 71.826 82.2528 71.826L82.1488 66.363L81.454 64.7743L76.3555 64.0649Z" fill="#575988"/>
<path opacity="0.1" d="M82.6313 85.7532C83.4515 85.3962 84.3367 85.2119 85.2315 85.2119C86.1264 85.2119 87.0116 85.3962 87.8317 85.7532H82.6313Z" fill="black"/>
<path d="M69.3893 86.6863C69.3893 86.6863 61.9361 85.6161 61.9007 87.0327C61.8654 88.4493 62.9408 102.242 66.5125 101.308C70.0841 100.375 68.5572 95.8121 68.5572 95.8121L71.2282 93.2548C71.2282 93.2548 71.5048 91.8383 69.7367 91.9751L69.3893 86.6863Z" fill="#C4747B"/>
<path d="M81.7305 48.0056L84.676 51.3593C84.676 51.3593 85.9595 52.9501 87.4842 50.5297C89.009 48.1093 91.8526 43.7891 91.8526 43.7891C91.8526 43.7891 95.0082 46.5538 95.8402 46.0021C96.6723 45.4504 88.179 57.515 88.179 57.515C88.179 57.515 85.4748 61.4889 81.4518 56.7891L80.2744 56.2354L81.7305 48.0056Z" fill="#FF5374"/>
<path opacity="0.1" d="M81.7305 48.0056L84.676 51.3593C84.676 51.3593 85.9595 52.9501 87.4842 50.5297C89.009 48.1093 91.8526 43.7891 91.8526 43.7891C91.8526 43.7891 95.0082 46.5538 95.8402 46.0021C96.6723 45.4504 88.179 57.515 88.179 57.515C88.179 57.515 85.4748 61.4889 81.4518 56.7891L80.2744 56.2354L81.7305 48.0056Z" fill="black"/>
<path d="M72.72 34.3775C76.109 34.3775 78.8564 31.6381 78.8564 28.259C78.8564 24.8799 76.109 22.1406 72.72 22.1406C69.3309 22.1406 66.5835 24.8799 66.5835 28.259C66.5835 31.6381 69.3309 34.3775 72.72 34.3775Z" fill="#FFEAE1"/>
<path opacity="0.1" d="M72.7175 31.5524C72.7175 31.5524 67.4443 34.0412 68.0683 38.3967C68.6924 42.7522 68.7964 48.2484 68.7964 48.2484C68.7964 48.2484 71.1906 51.7742 68.0163 58.5149C68.0163 58.5149 65.9882 61.937 67.3403 64.4259C67.3403 64.4259 68.8401 60.4852 72.7175 63.3889C76.5949 66.2925 82.8374 67.6406 82.8374 67.6406C82.8374 67.6406 79.6132 53.5372 81.5893 51.5668C81.5893 51.5668 85.0216 46.4854 81.9014 43.2707C78.7811 40.0559 80.3412 37.0486 80.3412 37.0486L90.3614 31.6913C90.3614 31.6913 92.4748 31.7245 95.3184 27.3006C97.1593 24.4735 99.1863 21.7713 101.386 19.2118C101.386 19.2118 99.2353 15.9971 97.2259 15.7544C97.2259 15.7544 96.4271 16.584 95.8738 18.8323C95.5784 20.0248 93.571 22.018 91.7551 23.6254C90.4654 24.7661 89.2214 25.9504 87.9796 27.1512C87.0602 28.0327 85.0133 29.2937 80.5493 30.0072C73.2022 31.1749 72.7175 31.5524 72.7175 31.5524Z" fill="black"/>
<path d="M72.7175 31.1378C72.7175 31.1378 67.4443 33.6267 68.0683 37.9821C68.6924 42.3376 68.7964 47.8338 68.7964 47.8338C68.7964 47.8338 71.1906 51.3597 68.0163 58.1003C68.0163 58.1003 65.9882 61.5225 67.3403 64.0113C67.3403 64.0113 68.8401 60.0707 72.7175 62.9743C76.5949 65.878 82.8374 67.2261 82.8374 67.2261C82.8374 67.2261 79.6132 53.1226 81.5893 51.1523C81.5893 51.1523 85.0216 46.0709 81.9014 42.8561C78.7811 39.6414 80.3412 36.634 80.3412 36.634L90.3614 31.2768C90.3614 31.2768 92.4748 31.3099 95.3184 26.886C97.1593 24.0589 99.1863 21.3567 101.386 18.7973C101.386 18.7973 99.2353 15.5825 97.2259 15.3398C97.2259 15.3398 96.4271 16.1695 95.8738 18.4177C95.5784 19.6103 93.571 21.6034 91.7551 23.2108C90.4654 24.3515 89.2214 25.5358 87.9796 26.7367C87.0602 27.6182 85.0133 28.8792 80.5493 29.5926C73.2022 30.7603 72.7175 31.1378 72.7175 31.1378Z" fill="#FF5374"/>
<path opacity="0.1" d="M77.2583 57.2021C77.2583 57.2021 81.3479 63.2169 81.4519 64.2539C81.454 64.2539 80.8299 57.7891 77.2583 57.2021Z" fill="black"/>
<path opacity="0.1" d="M71.8853 36.9448C71.8853 36.9448 74.7371 40.367 78.8579 37.4986C77.7191 37.8842 76.5132 38.0339 75.3143 37.9387C74.1154 37.8435 72.9485 37.5053 71.8853 36.9448Z" fill="black"/>
<path opacity="0.1" d="M74.0964 21.8605C74.0217 21.5497 73.8668 21.2637 73.6471 21.0309C72.7069 19.8549 71.6855 18.6478 70.2856 18.0899C69.3563 17.7437 68.3403 17.7032 67.3863 17.9741C66.4322 18.245 65.5901 18.8133 64.9833 19.5956C64.4799 20.2718 64.1803 21.0765 63.7456 21.8004C62.9426 23.1402 61.7008 24.1731 60.3653 24.9902C59.5603 25.4818 58.7116 25.907 57.9523 26.4649C55.192 28.4912 53.9168 32.2369 54.6116 35.5906C54.9174 37.0591 55.5643 38.5068 55.3896 39.998C55.2544 41.1553 54.6366 42.1923 54.0104 43.1754C53.3843 44.1585 52.7166 45.154 52.4669 46.2865C52.2173 47.4189 52.4794 48.7608 53.4217 49.4473C53.7691 49.7003 54.1872 49.8621 54.4847 50.1649C54.6816 50.4006 54.846 50.6615 54.9735 50.9406C55.469 51.8521 56.1457 52.6532 56.9623 53.2951C57.7788 53.937 58.718 54.4061 59.7225 54.6739C60.617 54.9083 61.8173 54.8232 62.1438 53.9604C62.1813 53.8081 62.238 53.661 62.3123 53.5228C62.6077 53.108 63.2588 53.3403 63.7164 53.5788C64.7582 54.1218 65.8997 54.4485 67.0717 54.5391C67.5366 54.6002 68.0094 54.5439 68.4467 54.3752C68.8159 54.1883 69.1337 53.9142 69.3724 53.5767C70.4666 52.156 70.7807 50.2997 70.9679 48.5181C71.0906 47.3588 71.1759 46.1786 70.9533 45.0338C70.5997 43.1962 69.4785 41.4789 69.6449 39.6164C69.8217 37.6253 71.4421 35.9972 71.6897 34.0165C71.8155 32.9794 71.5557 31.9324 70.9595 31.0734C70.7395 30.8081 70.553 30.517 70.4041 30.2064C70.3331 30.0494 70.311 29.8747 70.3407 29.705C70.3704 29.5352 70.4505 29.3783 70.5706 29.2545C70.7023 29.1619 70.8485 29.0918 71.0032 29.0471C72.3408 28.5348 73.0543 27.1991 73.15 25.8323C73.1874 25.3138 73.15 24.8367 73.2935 24.3307C73.5223 23.5488 74.215 22.6943 74.0964 21.8605Z" fill="black"/>
<path d="M73.6804 21.8605C73.6056 21.5497 73.4507 21.2637 73.2311 21.0309C72.2908 19.8549 71.2695 18.6478 69.8695 18.0899C68.9403 17.7437 67.9243 17.7032 66.9702 17.9741C66.0162 18.245 65.1741 18.8133 64.5672 19.5956C64.0638 20.2718 63.7643 21.0765 63.3295 21.8004C62.5266 23.1402 61.2847 24.1731 59.9493 24.9902C59.1443 25.4818 58.2956 25.907 57.5363 26.4649C54.7759 28.4912 53.5008 32.2369 54.1956 35.5906C54.5014 37.0591 55.1483 38.5068 54.9736 39.998C54.8383 41.1553 54.2205 42.1923 53.5944 43.1754C52.9683 44.1585 52.3005 45.154 52.0509 46.2865C51.8013 47.4189 52.0634 48.7608 53.0057 49.4473C53.3531 49.7003 53.7712 49.8621 54.0687 50.1649C54.2655 50.4006 54.4299 50.6615 54.5575 50.9406C55.053 51.8521 55.7297 52.6532 56.5462 53.2951C57.3628 53.937 58.302 54.4061 59.3065 54.6739C60.201 54.9083 61.4012 54.8232 61.7278 53.9604C61.7653 53.8081 61.8219 53.661 61.8963 53.5228C62.1917 53.108 62.8428 53.3403 63.3004 53.5788C64.3422 54.1218 65.4836 54.4485 66.6557 54.5391C67.1206 54.6002 67.5934 54.5439 68.0307 54.3752C68.3999 54.1883 68.7177 53.9142 68.9564 53.5767C70.0505 52.156 70.3646 50.2997 70.5518 48.5181C70.6746 47.3588 70.7598 46.1786 70.5373 45.0338C70.1836 43.1962 69.0624 41.4789 69.2288 39.6164C69.4057 37.6253 71.0261 35.9972 71.2736 34.0165C71.3995 32.9794 71.1397 31.9324 70.5435 31.0734C70.3235 30.8081 70.137 30.517 69.9881 30.2064C69.9171 30.0494 69.895 29.8747 69.9247 29.705C69.9543 29.5352 70.0344 29.3783 70.1545 29.2545C70.2862 29.1619 70.4325 29.0918 70.5872 29.0471C71.9247 28.5348 72.6382 27.1991 72.7339 25.8323C72.7713 25.3138 72.7339 24.8367 72.8774 24.3307C73.1063 23.5488 73.7989 22.6943 73.6804 21.8605Z" fill="#BB7684"/>
<g opacity="0.1">
<path opacity="0.1" d="M61.277 53.5119C61.2027 53.6504 61.1454 53.7973 61.1064 53.9495C60.9129 54.4639 60.4075 54.7003 59.8438 54.7584C60.628 54.8372 61.4663 54.6485 61.7304 53.9495C61.7695 53.7973 61.8267 53.6504 61.901 53.5119C61.9534 53.4357 62.0252 53.3748 62.109 53.3356C61.7929 53.2443 61.4684 53.2485 61.277 53.5119Z" fill="black"/>
<path opacity="0.1" d="M73.6916 21.858C73.6189 21.5463 73.4637 21.2599 73.2423 21.0283C72.3021 19.8524 71.2807 18.6453 69.8808 18.0873C69.2723 17.8505 68.6184 17.7527 67.967 17.8011C68.4093 17.8289 68.8444 17.9255 69.2567 18.0873C70.6567 18.6453 71.678 19.8524 72.6183 21.0283C72.8397 21.2599 72.9948 21.5463 73.0676 21.858C73.1861 22.6876 72.4955 23.5483 72.2667 24.3157C72.1149 24.8218 72.1585 25.2967 72.1232 25.8173C72.0254 27.182 71.314 28.5135 69.9744 29.0321C69.8196 29.0768 69.6734 29.1469 69.5417 29.2395C69.4215 29.3637 69.3416 29.5211 69.3123 29.6913C69.283 29.8614 69.3057 30.0364 69.3774 30.1935C69.5255 30.504 69.7113 30.7952 69.9307 31.0605C70.5275 31.9184 70.788 32.9648 70.6629 34.0015C70.4133 35.9863 68.7908 37.6124 68.616 39.6014C68.4496 41.468 69.5729 43.1811 69.9245 45.0167C70.145 46.1615 70.0617 47.3417 69.939 48.5011C69.7518 50.2827 69.4398 52.141 68.3435 53.5596C68.1057 53.897 67.7886 54.1712 67.42 54.3581C67.2045 54.4523 66.9744 54.5091 66.7397 54.5261C67.1817 54.5786 67.6299 54.5209 68.044 54.3581C68.4133 54.1761 68.7325 53.907 68.9738 53.5742C70.0701 52.1555 70.3821 50.2972 70.5693 48.5156C70.692 47.3562 70.7773 46.1761 70.5547 45.0312C70.2032 43.1957 69.0799 41.4763 69.2463 39.6159C69.4252 37.6227 71.0436 35.9967 71.2932 34.016C71.4183 32.9793 71.1578 31.9329 70.561 31.075C70.3416 30.8097 70.1558 30.5185 70.0077 30.208C69.9359 30.0509 69.9133 29.8759 69.9426 29.7058C69.9719 29.5357 70.0518 29.3782 70.172 29.254C70.3037 29.1615 70.4499 29.0914 70.6047 29.0466C71.9443 28.5322 72.6557 27.1965 72.7535 25.8318C72.7888 25.3112 72.7535 24.8363 72.897 24.3302C73.1196 23.5483 73.8102 22.6938 73.6916 21.858Z" fill="black"/>
</g>
<path opacity="0.1" d="M65.8154 95.0552C66.1719 95.4433 66.6309 95.7235 67.1396 95.8636C67.6484 96.0037 68.1865 95.9981 68.6923 95.8475" fill="black"/>
<path opacity="0.1" d="M79.1453 130.521C78.9465 130.682 78.7152 130.797 78.4674 130.859C78.2196 130.921 77.9611 130.929 77.71 130.882" fill="black"/>
<path opacity="0.1" d="M22.8729 136.959C25.9667 136.959 28.4747 136.537 28.4747 136.015C28.4747 135.494 25.9667 135.072 22.8729 135.072C19.779 135.072 17.271 135.494 17.271 136.015C17.271 136.537 19.779 136.959 22.8729 136.959Z" fill="#6FAD40"/>
<path d="M176.239 155.75C179.332 155.75 181.84 155.327 181.84 154.806C181.84 154.285 179.332 153.862 176.239 153.862C173.145 153.862 170.637 154.285 170.637 154.806C170.637 155.327 173.145 155.75 176.239 155.75Z" fill="#6FAD40"/>
<path opacity="0.1" d="M176.239 137.586C179.332 137.586 181.84 137.163 181.84 136.642C181.84 136.121 179.332 135.698 176.239 135.698C173.145 135.698 170.637 136.121 170.637 136.642C170.637 137.163 173.145 137.586 176.239 137.586Z" fill="#6C63FF"/>
<path opacity="0.1" d="M38.7566 145.722C41.8505 145.722 44.3585 145.299 44.3585 144.778C44.3585 144.257 41.8505 143.834 38.7566 143.834C35.6628 143.834 33.1548 144.257 33.1548 144.778C33.1548 145.299 35.6628 145.722 38.7566 145.722Z" fill="#6FAD40"/>
<path d="M193.955 146.189C198.575 146.189 202.319 145.557 202.319 144.779C202.319 144 198.575 143.368 193.955 143.368C189.336 143.368 185.591 144 185.591 144.779C185.591 145.557 189.336 146.189 193.955 146.189Z" fill="#6FAD40"/>
<path opacity="0.1" d="M73.693 159C84.1198 159 92.5725 157.575 92.5725 155.818C92.5725 154.061 84.1198 152.637 73.693 152.637C63.2661 152.637 54.8135 154.061 54.8135 155.818C54.8135 157.575 63.2661 159 73.693 159Z" fill="#6FAD40"/>
<path d="M197.413 142.472C197.794 142.161 198.073 141.743 198.211 141.271C198.313 140.794 198.109 140.224 197.654 140.05C197.142 139.855 196.595 140.207 196.181 140.566C195.767 140.925 195.291 141.329 194.748 141.255C195.027 141.003 195.236 140.683 195.354 140.326C195.472 139.969 195.496 139.588 195.422 139.22C195.398 139.067 195.334 138.924 195.235 138.805C194.95 138.502 194.436 138.633 194.095 138.872C193.013 139.631 192.711 141.095 192.705 142.414C192.597 141.939 192.689 141.443 192.687 140.962C192.684 140.481 192.549 139.925 192.137 139.67C191.883 139.53 191.596 139.459 191.305 139.463C190.819 139.446 190.278 139.494 189.945 139.848C189.529 140.29 189.639 141.029 189.999 141.508C190.359 141.987 190.904 142.296 191.405 142.632C191.809 142.871 192.153 143.198 192.412 143.588C192.442 143.642 192.467 143.699 192.487 143.758H195.534C196.216 143.416 196.847 142.983 197.413 142.472Z" fill="#6FAD40"/>
<path d="M179.698 152.55C180.079 152.239 180.357 151.82 180.495 151.349C180.597 150.872 180.395 150.312 179.937 150.127C179.425 149.932 178.878 150.285 178.464 150.644C178.05 151.003 177.574 151.407 177.031 151.332C177.31 151.08 177.519 150.76 177.637 150.404C177.755 150.047 177.779 149.666 177.705 149.298C177.683 149.145 177.618 149.001 177.518 148.883C177.235 148.58 176.719 148.711 176.38 148.949C175.298 149.708 174.997 151.173 174.991 152.492C174.88 152.017 174.972 151.521 174.97 151.04C174.968 150.559 174.832 150.003 174.421 149.748C174.165 149.611 173.878 149.543 173.588 149.551C173.102 149.534 172.561 149.582 172.228 149.936C171.812 150.378 171.922 151.117 172.282 151.596C172.642 152.075 173.187 152.384 173.69 152.72C174.093 152.959 174.437 153.286 174.695 153.676C174.725 153.73 174.75 153.787 174.77 153.846H177.817C178.5 153.5 179.132 153.064 179.698 152.55Z" fill="#6FAD40"/>
<path d="M45.1015 133.84C45.1015 133.84 42.1789 123.944 45.6507 116.662C47.129 113.616 47.5758 110.174 46.9237 106.852C46.602 105.279 46.1362 103.738 45.5321 102.25" stroke="#CDCBC7" stroke-width="2" stroke-miterlimit="10"/>
<path d="M47.685 97.6477C47.685 98.861 45.4821 102.376 45.4821 102.376C45.4821 102.376 43.2813 98.861 43.2813 97.6477C43.2722 97.3537 43.3225 97.0609 43.4291 96.7867C43.5356 96.5124 43.6964 96.2623 43.9017 96.0512C44.1071 95.84 44.3529 95.6721 44.6245 95.5575C44.8962 95.4429 45.1882 95.3838 45.4832 95.3838C45.7781 95.3838 46.0701 95.4429 46.3418 95.5575C46.6134 95.6721 46.8592 95.84 47.0646 96.0512C47.2699 96.2623 47.4307 96.5124 47.5372 96.7867C47.6438 97.0609 47.6941 97.3537 47.685 97.6477Z" fill="#6FAD40"/>
<path d="M51.3255 104.366C50.664 105.382 46.8989 107.141 46.8989 107.141C46.8989 107.141 46.9676 102.993 47.6291 101.978C47.9541 101.507 48.4508 101.181 49.0134 101.069C49.5761 100.957 50.1604 101.068 50.6419 101.379C51.1235 101.69 51.4643 102.176 51.592 102.734C51.7197 103.292 51.6241 103.877 51.3255 104.366Z" fill="#6FAD40"/>
<path d="M51.1669 115.843C50.081 116.391 45.9395 116.013 45.9395 116.013C45.9395 116.013 48.0966 112.469 49.1824 111.923C49.7014 111.681 50.2949 111.649 50.8368 111.836C51.3787 112.022 51.8263 112.412 52.0847 112.922C52.343 113.432 52.3916 114.023 52.2203 114.568C52.0489 115.114 51.671 115.571 51.1669 115.843Z" fill="#6FAD40"/>
<path d="M49.0848 124.507C48.1072 125.227 43.9614 125.544 43.9614 125.544C43.9614 125.544 45.4883 121.686 46.4576 120.964C46.928 120.652 47.5011 120.531 48.0582 120.628C48.6153 120.725 49.1137 121.031 49.4503 121.484C49.7869 121.938 49.9358 122.502 49.8662 123.062C49.7966 123.621 49.5139 124.133 49.0765 124.49L49.0848 124.507Z" fill="#6FAD40"/>
<path d="M42.2746 107.377C43.1482 108.221 47.2108 109.096 47.2108 109.096C47.2108 109.096 46.2165 105.071 45.3386 104.227C44.9164 103.838 44.3587 103.63 43.7844 103.645C43.2102 103.661 42.6648 103.9 42.2646 104.311C41.8644 104.722 41.641 105.272 41.6421 105.845C41.6432 106.418 41.8686 106.968 42.2704 107.377H42.2746Z" fill="#6FAD40"/>
<path d="M39.9698 117.534C41.0556 118.079 45.1951 117.702 45.1951 117.702C45.1951 117.702 43.038 114.157 41.9522 113.612C41.4322 113.364 40.8353 113.329 40.2896 113.514C39.744 113.7 39.293 114.091 39.0335 114.604C38.7741 115.118 38.7268 115.712 38.9018 116.26C39.0769 116.807 39.4603 117.265 39.9698 117.534Z" fill="#6FAD40"/>
<path d="M39.0857 127.711C40.0634 128.433 44.2091 128.748 44.2091 128.748C44.2091 128.748 42.6823 124.891 41.7129 124.171C41.2425 123.858 40.6694 123.738 40.1123 123.834C39.5552 123.931 39.0568 124.238 38.7202 124.691C38.3837 125.144 38.2348 125.709 38.3043 126.268C38.3739 126.828 38.6567 127.339 39.094 127.697L39.0857 127.711Z" fill="#6FAD40"/>
<path d="M38.187 133.217C38.187 133.217 41.7462 132.512 42.6968 131.573C43.6474 130.633 47.9159 128.99 48.3902 130.164C48.8644 131.338 54.797 135.331 50.7636 136.036C46.7302 136.741 41.2719 136.975 40.0862 136.507C38.9005 136.038 38.187 133.217 38.187 133.217Z" fill="#A8A8A8"/>
<path opacity="0.2" d="M50.7699 135.594C46.7364 136.3 41.2781 136.534 40.0924 136.063C39.1876 135.706 38.5594 133.989 38.3118 133.187L38.187 133.218C38.187 133.218 38.8984 136.036 40.0862 136.507C41.274 136.978 46.7302 136.741 50.7636 136.036C51.9285 135.829 52.2613 135.356 52.1365 134.75C52.0429 135.138 51.6373 135.443 50.7699 135.594Z" fill="black"/>
<path d="M177.385 123.036C177.385 123.036 178.529 124.527 176.858 126.769C175.188 129.011 173.811 130.917 174.362 132.322C174.362 132.322 176.883 128.142 178.939 128.084C180.994 128.026 179.637 125.544 177.385 123.036Z" fill="#6FAD40"/>
<path opacity="0.1" d="M177.385 123.036C177.485 123.181 177.564 123.338 177.62 123.505C179.621 125.849 180.686 128.037 178.762 128.091C176.971 128.142 174.822 131.336 174.306 132.143C174.323 132.206 174.343 132.267 174.366 132.328C174.366 132.328 176.888 128.149 178.943 128.091C180.998 128.032 179.638 125.544 177.385 123.036Z" fill="black"/>
<path d="M179.51 124.936C179.51 125.461 179.45 125.886 179.377 125.886C179.304 125.886 179.246 125.471 179.246 124.936C179.246 124.401 179.319 124.658 179.392 124.658C179.465 124.658 179.51 124.411 179.51 124.936Z" fill="#FFD037"/>
<path d="M180.239 125.563C179.777 125.814 179.373 125.965 179.34 125.901C179.307 125.836 179.65 125.583 180.112 125.332C180.574 125.082 180.393 125.264 180.428 125.332C180.463 125.401 180.701 125.312 180.239 125.563Z" fill="#FFD037"/>
<path d="M171.35 123.036C171.35 123.036 170.206 124.527 171.877 126.769C173.547 129.011 174.924 130.917 174.373 132.322C174.373 132.322 171.854 128.142 169.796 128.084C167.739 128.026 169.093 125.544 171.35 123.036Z" fill="#6FAD40"/>
<path opacity="0.1" d="M171.35 123.036C171.25 123.181 171.171 123.338 171.115 123.505C169.114 125.849 168.049 128.037 169.973 128.091C171.764 128.142 173.913 131.336 174.429 132.143C174.412 132.206 174.391 132.268 174.366 132.328C174.366 132.328 171.847 128.149 169.79 128.091C167.733 128.032 169.093 125.544 171.35 123.036Z" fill="black"/>
<path d="M169.224 124.936C169.224 125.461 169.284 125.886 169.357 125.886C169.43 125.886 169.488 125.471 169.488 124.936C169.488 124.401 169.416 124.658 169.343 124.658C169.27 124.658 169.224 124.411 169.224 124.936Z" fill="#FFD037"/>
<path d="M168.496 125.563C168.958 125.814 169.359 125.965 169.394 125.901C169.43 125.836 169.085 125.583 168.623 125.332C168.161 125.082 168.342 125.264 168.307 125.332C168.271 125.401 168.034 125.312 168.496 125.563Z" fill="#FFD037"/>
<path d="M169.588 132.133C169.588 132.133 172.784 132.033 173.749 131.351C174.714 130.668 178.664 129.851 178.903 130.936C179.143 132.021 183.704 136.389 180.097 136.418C176.49 136.447 171.716 135.858 170.755 135.275C169.794 134.692 169.588 132.133 169.588 132.133Z" fill="#A8A8A8"/>
<path opacity="0.2" d="M180.16 136.047C176.553 136.076 171.779 135.487 170.818 134.904C170.086 134.46 169.792 132.865 169.697 132.129H169.588C169.588 132.129 169.796 134.699 170.753 135.281C171.71 135.864 176.488 136.453 180.095 136.424C181.135 136.424 181.495 136.047 181.476 135.501C181.331 135.835 180.934 136.041 180.16 136.047Z" fill="black"/>
</svg>
